<?xml version="1.0" encoding="UTF-8" standalone="no"?>
<!-- Created with Inkscape (http://www.inkscape.org/) -->

<svg
   width="500"
   height="180"
   viewBox="0 0 500 180"
   version="1.1"
   id="svg1"
   inkscape:version="1.4.3 (0d15f75042, 2025-12-25)"
   sodipodi:docname="logo.svg"
   xmlns:inkscape="http://www.inkscape.org/namespaces/inkscape"
   xmlns:sodipodi="http://sodipodi.sourceforge.net/DTD/sodipodi-0.dtd"
   xmlns="http://www.w3.org/2000/svg"
   xmlns:svg="http://www.w3.org/2000/svg">
  <sodipodi:namedview
     id="namedview1"
     pagecolor="#ffffff"
     bordercolor="#000000"
     borderopacity="0.25"
     inkscape:showpageshadow="2"
     inkscape:pageopacity="0.0"
     inkscape:pagecheckerboard="0"
     inkscape:deskcolor="#d1d1d1"
     inkscape:document-units="px"
     inkscape:zoom="0.69921875"
     inkscape:cx="298.90503"
     inkscape:cy="87.955307"
     inkscape:window-width="1346"
     inkscape:window-height="710"
     inkscape:window-x="0"
     inkscape:window-y="0"
     inkscape:window-maximized="0"
     inkscape:current-layer="layer1" />
  <defs
     id="defs1" />
  <g
     inkscape:label="Capa 1"
     inkscape:groupmode="layer"
     id="layer1">
    <path
       style="fill:none;fill-opacity:1;stroke:#f2f0c8;stroke-width:9.86431;stroke-linecap:square;stroke-opacity:1;paint-order:markers stroke fill"
       d="M 82.371117,108.34289 C 79.810884,99.356212 71.037032,23.336587 173.04454,37.18947 c 102.00763,13.852881 83.74697,68.00504 83.74697,68.00504 0,0 -6.90641,66.22799 -102.63722,47.8554 -62.337938,-11.96384 -67.523127,-29.7545 -71.783173,-44.70702 z"
       id="path14-2"
       sodipodi:nodetypes="sscss" />
    <path
       style="fill:none;fill-opacity:1;stroke:#f2f0c8;stroke-width:9.86431;stroke-linecap:butt;stroke-opacity:1;paint-order:markers stroke fill"
       d="m 87.826402,65.441739 c 0,0 -50.162254,-65.40318163 -64.01515,-48.401918 -13.8528918,17.001263 27.705772,47.225726 27.705772,47.225726 l 29.686619,25.734439"
       id="path15-6" />
    <path
       style="fill:none;fill-opacity:1;stroke:#f2f0c8;stroke-width:9.86431;stroke-linecap:butt;stroke-opacity:1;paint-order:markers stroke fill"
       d="m 87.826402,114.55827 c 0,0 -50.162254,65.40317 -64.01515,48.40191 C 9.9583602,145.95892 51.517024,115.73443 51.517024,115.73443 L 81.203643,89.999986"
       id="path16-1" />
    <path
       style="fill:none;fill-opacity:1;stroke:#f2f0c8;stroke-width:9.82169;stroke-linecap:butt;stroke-dasharray:none;stroke-opacity:1;paint-order:markers stroke fill"
       d="m 66.360335,77.132777 c 0,0 -60.4389126,-11.122981 -61.4393531,9.801112 C 3.9205432,107.858 66.360335,102.86722 66.360335,102.86722"
       id="path17-8"
       sodipodi:nodetypes="czc" />
    <path
       style="fill:none;fill-opacity:1;stroke:#f2f0c8;stroke-width:9.86431;stroke-linecap:butt;stroke-opacity:1;paint-order:markers stroke fill"
       d="m 251.43698,71.34829 c 0,0 38.82815,-52.809649 52.68104,-35.808382 13.8529,17.001256 -16.37157,34.632208 -16.37157,34.632208 l -29.68673,25.734438"
       id="path15-7-7"
       sodipodi:nodetypes="cscc" />
    <path
       style="fill:none;fill-opacity:1;stroke:#f2f0c8;stroke-width:9.86431;stroke-linecap:butt;stroke-opacity:1;paint-order:markers stroke fill"
       d="m 251.43698,120.46481 c 0,0 34.73525,48.71676 48.58815,31.7155 13.85289,-17.00124 -12.27868,-30.5393 -12.27868,-30.5393 L 258.05972,95.906554"
       id="path16-0-9"
       sodipodi:nodetypes="cscc" />
    <path
       style="fill:none;fill-opacity:1;stroke:#f2f0c8;stroke-width:9.82169;stroke-linecap:butt;stroke-dasharray:none;stroke-opacity:1;paint-order:markers stroke fill"
       d="m 272.90314,83.039341 c 0,0 38.40025,-9.233953 39.40068,11.690122 1.00043,20.924097 -39.40068,14.044317 -39.40068,14.044317"
       id="path17-9-2"
       sodipodi:nodetypes="czc" />
    <path
       style="fill:#f2f0c8;fill-opacity:1;stroke:none;stroke-width:9.82169;stroke-linecap:butt;stroke-dasharray:none;stroke-opacity:1;paint-order:markers stroke fill"
       d="m 167.37743,79.062947 c 0,0 -5.98823,0.314854 -5.98823,16.37158 0,16.056733 1.58058,25.816733 6.30309,27.390923 4.72262,1.5742 9.76,-14.48256 8.81551,-20.77931 -0.94458,-6.296776 -3.14203,-23.29803 -9.13037,-22.983193 z"
       id="path18-0" />
    <path
       style="fill:#f2f0c8;fill-opacity:1;stroke:none;stroke-width:9.82169;stroke-linecap:butt;stroke-dasharray:none;stroke-opacity:1;paint-order:markers stroke fill"
       d="m 222.0363,77.687656 c 0,0 5.98823,0.314837 5.98823,16.371598 0,16.056726 -1.58046,25.816716 -6.30309,27.390926 -4.72254,1.57418 -9.76,-14.48257 -8.81541,-20.77935 0.94448,-6.296739 3.14203,-23.298011 9.13027,-22.983174 z"
       id="path19-2" />
    <path
       style="fill:none;fill-opacity:1;stroke:#f2f0c8;stroke-width:9.82169;stroke-linecap:butt;stroke-dasharray:none;stroke-opacity:1;paint-order:markers stroke fill"
       d="m 400.36616,84.151575 c 0,0 -27.60535,-35.619866 5.7883,-43.634337 33.39356,-8.014477 75.24694,-11.778847 85.48769,25.945826 10.24065,37.724696 -2.22628,91.154496 -42.29863,88.037756 -40.07237,-3.11674 -49.86787,-33.39362 -77.02798,-34.28411 -27.16019,-0.89051 -52.53928,9.79547 -52.53928,9.79547 0,0 6.23348,-43.189128 26.71483,-48.977341 20.48151,-5.788218 42.29867,-9.795452 53.87507,3.116736 z"
       id="path20-3" />
    <path
       style="fill:none;fill-opacity:1;stroke:#f2f0c8;stroke-width:9.82169;stroke-linecap:butt;stroke-dasharray:none;stroke-opacity:1;paint-order:markers stroke fill"
       d="m 400.36616,84.151575 c 0,0 5.7883,28.050645 36.95569,21.817165 31.16739,-6.233479 31.73698,-14.141603 29.83164,-28.495888 C 465.24811,63.118545 449.34352,51.648433 427.0811,55.655683 404.81871,59.6629 400.36616,84.151575 400.36616,84.151575 Z"
       id="path21-7"
       sodipodi:nodetypes="cszsc" />
  </g>
</svg>
